G04 #@! TF.GenerationSoftware,KiCad,Pcbnew,(5.1.5)-3*
G04 #@! TF.CreationDate,2020-12-07T15:57:25+01:00*
G04 #@! TF.ProjectId,Jupiter,4a757069-7465-4722-9e6b-696361645f70,0.1*
G04 #@! TF.SameCoordinates,Original*
G04 #@! TF.FileFunction,Legend,Bot*
G04 #@! TF.FilePolarity,Positive*
%FSLAX46Y46*%
G04 Gerber Fmt 4.6, Leading zero omitted, Abs format (unit mm)*
G04 Created by KiCad (PCBNEW (5.1.5)-3) date 2020-12-07 15:57:25*
%MOMM*%
%LPD*%
G04 APERTURE LIST*
%ADD10C,0.300000*%
%ADD11C,0.750000*%
%ADD12C,0.127000*%
%ADD13C,0.150000*%
%ADD14C,0.050000*%
G04 APERTURE END LIST*
D10*
X126436968Y-111559838D02*
X127579825Y-111559838D01*
X126758397Y-109559838D02*
X127008397Y-111559838D01*
X127996492Y-109559838D02*
X128246492Y-111559838D01*
X128853635Y-109559838D02*
X128984587Y-110607457D01*
X128913159Y-110797933D01*
X128734587Y-110893171D01*
X128448873Y-110893171D01*
X128246492Y-110797933D01*
X128139349Y-110702695D01*
X130579825Y-109655076D02*
X130377445Y-109559838D01*
X129996492Y-109559838D01*
X129817921Y-109655076D01*
X129746492Y-109845552D01*
X129841730Y-110607457D01*
X129960778Y-110797933D01*
X130163159Y-110893171D01*
X130544111Y-110893171D01*
X130722683Y-110797933D01*
X130794111Y-110607457D01*
X130770302Y-110416980D01*
X129794111Y-110226504D01*
X133044111Y-109559838D02*
X133294111Y-111559838D01*
X134163159Y-110893171D02*
X133996492Y-109559838D01*
X134139349Y-110702695D02*
X134246492Y-110797933D01*
X134448873Y-110893171D01*
X134734587Y-110893171D01*
X134913159Y-110797933D01*
X134984587Y-110607457D01*
X134853635Y-109559838D01*
X135782206Y-110893171D02*
X136091730Y-109559838D01*
X136734587Y-110893171D01*
X138103635Y-109655076D02*
X137901254Y-109559838D01*
X137520302Y-109559838D01*
X137341730Y-109655076D01*
X137270302Y-109845552D01*
X137365540Y-110607457D01*
X137484587Y-110797933D01*
X137686968Y-110893171D01*
X138067921Y-110893171D01*
X138246492Y-110797933D01*
X138317921Y-110607457D01*
X138294111Y-110416980D01*
X137317921Y-110226504D01*
X139210778Y-110893171D02*
X139044111Y-109559838D01*
X139186968Y-110702695D02*
X139294111Y-110797933D01*
X139496492Y-110893171D01*
X139782206Y-110893171D01*
X139960778Y-110797933D01*
X140032206Y-110607457D01*
X139901254Y-109559838D01*
X140734587Y-110893171D02*
X141496492Y-110893171D01*
X141103635Y-111559838D02*
X140889349Y-109845552D01*
X140960778Y-109655076D01*
X141139349Y-109559838D01*
X141329825Y-109559838D01*
X142282206Y-109559838D02*
X142103635Y-109655076D01*
X142020302Y-109750314D01*
X141948873Y-109940790D01*
X142020302Y-110512219D01*
X142139349Y-110702695D01*
X142246492Y-110797933D01*
X142448873Y-110893171D01*
X142734587Y-110893171D01*
X142913159Y-110797933D01*
X142996492Y-110702695D01*
X143067921Y-110512219D01*
X142996492Y-109940790D01*
X142877445Y-109750314D01*
X142770302Y-109655076D01*
X142567921Y-109559838D01*
X142282206Y-109559838D01*
X143806016Y-109559838D02*
X143972683Y-110893171D01*
X143925064Y-110512219D02*
X144044111Y-110702695D01*
X144151254Y-110797933D01*
X144353635Y-110893171D01*
X144544111Y-110893171D01*
X146532206Y-111559838D02*
X147675064Y-111559838D01*
X146853635Y-109559838D02*
X147103635Y-111559838D01*
X148377445Y-109559838D02*
X148198873Y-109655076D01*
X148115540Y-109750314D01*
X148044111Y-109940790D01*
X148115540Y-110512219D01*
X148234587Y-110702695D01*
X148341730Y-110797933D01*
X148544111Y-110893171D01*
X148829825Y-110893171D01*
X149008397Y-110797933D01*
X149091730Y-110702695D01*
X149163159Y-110512219D01*
X149091730Y-109940790D01*
X148972683Y-109750314D01*
X148865540Y-109655076D01*
X148663159Y-109559838D01*
X148377445Y-109559838D01*
X150186968Y-109559838D02*
X150008397Y-109655076D01*
X149925064Y-109750314D01*
X149853635Y-109940790D01*
X149925064Y-110512219D01*
X150044111Y-110702695D01*
X150151254Y-110797933D01*
X150353635Y-110893171D01*
X150639349Y-110893171D01*
X150817921Y-110797933D01*
X150901254Y-110702695D01*
X150972683Y-110512219D01*
X150901254Y-109940790D01*
X150782206Y-109750314D01*
X150675064Y-109655076D01*
X150472683Y-109559838D01*
X150186968Y-109559838D01*
X151996492Y-109559838D02*
X151817921Y-109655076D01*
X151746492Y-109845552D01*
X151960778Y-111559838D01*
D11*
X118426622Y-118852676D02*
X118069479Y-115995533D01*
X117807574Y-115424104D01*
X117379003Y-115043152D01*
X116783765Y-114852676D01*
X116402812Y-114852676D01*
X121879003Y-117519342D02*
X121545670Y-114852676D01*
X120164717Y-117519342D02*
X119902812Y-115424104D01*
X120045670Y-115043152D01*
X120402812Y-114852676D01*
X120974241Y-114852676D01*
X121379003Y-115043152D01*
X121593289Y-115233628D01*
X123783765Y-117519342D02*
X123283765Y-113519342D01*
X123759955Y-117328866D02*
X124164717Y-117519342D01*
X124926622Y-117519342D01*
X125283765Y-117328866D01*
X125450432Y-117138390D01*
X125593289Y-116757438D01*
X125450432Y-115614580D01*
X125212336Y-115233628D01*
X124998051Y-115043152D01*
X124593289Y-114852676D01*
X123831384Y-114852676D01*
X123474241Y-115043152D01*
X127069479Y-114852676D02*
X127402812Y-117519342D01*
X127569479Y-118852676D02*
X127355193Y-118662200D01*
X127521860Y-118471723D01*
X127736146Y-118662200D01*
X127569479Y-118852676D01*
X127521860Y-118471723D01*
X128736146Y-117519342D02*
X130259955Y-117519342D01*
X129474241Y-118852676D02*
X129045670Y-115424104D01*
X129188527Y-115043152D01*
X129545670Y-114852676D01*
X129926622Y-114852676D01*
X132807574Y-115043152D02*
X132402812Y-114852676D01*
X131640908Y-114852676D01*
X131283765Y-115043152D01*
X131140908Y-115424104D01*
X131331384Y-116947914D01*
X131569479Y-117328866D01*
X131974241Y-117519342D01*
X132736146Y-117519342D01*
X133093289Y-117328866D01*
X133236146Y-116947914D01*
X133188527Y-116566961D01*
X131236146Y-116186009D01*
X134688527Y-114852676D02*
X135021860Y-117519342D01*
X134926622Y-116757438D02*
X135164717Y-117138390D01*
X135379003Y-117328866D01*
X135783765Y-117519342D01*
X136164717Y-117519342D01*
X140212336Y-114852676D02*
X140712336Y-118852676D01*
X141688527Y-115995533D01*
X143379003Y-118852676D01*
X142879003Y-114852676D01*
X145355193Y-114852676D02*
X144998051Y-115043152D01*
X144831384Y-115233628D01*
X144688527Y-115614580D01*
X144831384Y-116757438D01*
X145069479Y-117138390D01*
X145283765Y-117328866D01*
X145688527Y-117519342D01*
X146259955Y-117519342D01*
X146617098Y-117328866D01*
X146783765Y-117138390D01*
X146926622Y-116757438D01*
X146783765Y-115614580D01*
X146545670Y-115233628D01*
X146331384Y-115043152D01*
X145926622Y-114852676D01*
X145355193Y-114852676D01*
X150117098Y-114852676D02*
X150617098Y-118852676D01*
X150140908Y-115043152D02*
X149736146Y-114852676D01*
X148974241Y-114852676D01*
X148617098Y-115043152D01*
X148450432Y-115233628D01*
X148307574Y-115614580D01*
X148450432Y-116757438D01*
X148688527Y-117138390D01*
X148902812Y-117328866D01*
X149307574Y-117519342D01*
X150069479Y-117519342D01*
X150426622Y-117328866D01*
X153569479Y-115043152D02*
X153164717Y-114852676D01*
X152402812Y-114852676D01*
X152045670Y-115043152D01*
X151902812Y-115424104D01*
X152093289Y-116947914D01*
X152331384Y-117328866D01*
X152736146Y-117519342D01*
X153498051Y-117519342D01*
X153855193Y-117328866D01*
X153998051Y-116947914D01*
X153950432Y-116566961D01*
X151998051Y-116186009D01*
X156021860Y-114852676D02*
X155664717Y-115043152D01*
X155521860Y-115424104D01*
X155950432Y-118852676D01*
X160545670Y-115995533D02*
X162450432Y-115995533D01*
X160021860Y-114852676D02*
X161855193Y-118852676D01*
X162688527Y-114852676D01*
D12*
X173980000Y-54590000D02*
X173980000Y-57210000D01*
X173980000Y-57210000D02*
X196850000Y-57190000D01*
X173990000Y-34290000D02*
X173990000Y-36830000D01*
X173990000Y-36830000D02*
X173990000Y-54610000D01*
X173990000Y-54610000D02*
X176530000Y-54610000D01*
X176530000Y-54610000D02*
X176530000Y-36830000D01*
X176530000Y-36830000D02*
X176530000Y-34290000D01*
X176530000Y-34290000D02*
X173990000Y-34290000D01*
X196850000Y-36830000D02*
X199390000Y-36830000D01*
X199390000Y-34290000D02*
X199390000Y-54610000D01*
X196850000Y-34290000D02*
X196850000Y-36830000D01*
X196850000Y-36830000D02*
X196850000Y-54610000D01*
X196850000Y-54610000D02*
X199390000Y-54610000D01*
X196850000Y-34290000D02*
X199390000Y-34290000D01*
X173990000Y-36830000D02*
X176530000Y-36830000D01*
X199390000Y-54610000D02*
X196850000Y-57200000D01*
X144770000Y-54590000D02*
X144770000Y-57210000D01*
X144770000Y-57210000D02*
X167640000Y-57190000D01*
X144780000Y-34290000D02*
X144780000Y-36830000D01*
X144780000Y-36830000D02*
X144780000Y-54610000D01*
X144780000Y-54610000D02*
X147320000Y-54610000D01*
X147320000Y-54610000D02*
X147320000Y-36830000D01*
X147320000Y-36830000D02*
X147320000Y-34290000D01*
X147320000Y-34290000D02*
X144780000Y-34290000D01*
X167640000Y-36830000D02*
X170180000Y-36830000D01*
X170180000Y-34290000D02*
X170180000Y-54610000D01*
X167640000Y-34290000D02*
X167640000Y-36830000D01*
X167640000Y-36830000D02*
X167640000Y-54610000D01*
X167640000Y-54610000D02*
X170180000Y-54610000D01*
X167640000Y-34290000D02*
X170180000Y-34290000D01*
X144780000Y-36830000D02*
X147320000Y-36830000D01*
X170180000Y-54610000D02*
X167640000Y-57200000D01*
X115560000Y-54590000D02*
X115560000Y-57210000D01*
X115560000Y-57210000D02*
X138430000Y-57190000D01*
X115570000Y-34290000D02*
X115570000Y-36830000D01*
X115570000Y-36830000D02*
X115570000Y-54610000D01*
X115570000Y-54610000D02*
X118110000Y-54610000D01*
X118110000Y-54610000D02*
X118110000Y-36830000D01*
X118110000Y-36830000D02*
X118110000Y-34290000D01*
X118110000Y-34290000D02*
X115570000Y-34290000D01*
X138430000Y-36830000D02*
X140970000Y-36830000D01*
X140970000Y-34290000D02*
X140970000Y-54610000D01*
X138430000Y-34290000D02*
X138430000Y-36830000D01*
X138430000Y-36830000D02*
X138430000Y-54610000D01*
X138430000Y-54610000D02*
X140970000Y-54610000D01*
X138430000Y-34290000D02*
X140970000Y-34290000D01*
X115570000Y-36830000D02*
X118110000Y-36830000D01*
X140970000Y-54610000D02*
X138430000Y-57200000D01*
X86350000Y-54590000D02*
X86350000Y-57210000D01*
X86350000Y-57210000D02*
X109220000Y-57190000D01*
X86360000Y-34290000D02*
X86360000Y-36830000D01*
X86360000Y-36830000D02*
X86360000Y-54610000D01*
X86360000Y-54610000D02*
X88900000Y-54610000D01*
X88900000Y-54610000D02*
X88900000Y-36830000D01*
X88900000Y-36830000D02*
X88900000Y-34290000D01*
X88900000Y-34290000D02*
X86360000Y-34290000D01*
X109220000Y-36830000D02*
X111760000Y-36830000D01*
X111760000Y-34290000D02*
X111760000Y-54610000D01*
X109220000Y-34290000D02*
X109220000Y-36830000D01*
X109220000Y-36830000D02*
X109220000Y-54610000D01*
X109220000Y-54610000D02*
X111760000Y-54610000D01*
X109220000Y-34290000D02*
X111760000Y-34290000D01*
X86360000Y-36830000D02*
X88900000Y-36830000D01*
X111760000Y-54610000D02*
X109220000Y-57200000D01*
D13*
X187060000Y-51369523D02*
X187060000Y-52321904D01*
X187893333Y-51940952D02*
X187060000Y-52321904D01*
X186226666Y-51940952D01*
X187560000Y-53083809D02*
X187060000Y-52321904D01*
X186560000Y-53083809D01*
D14*
X179141523Y-53075000D02*
X179236761Y-53027380D01*
X179379619Y-53027380D01*
X179522476Y-53075000D01*
X179617714Y-53170238D01*
X179665333Y-53265476D01*
X179712952Y-53455952D01*
X179712952Y-53598809D01*
X179665333Y-53789285D01*
X179617714Y-53884523D01*
X179522476Y-53979761D01*
X179379619Y-54027380D01*
X179284380Y-54027380D01*
X179141523Y-53979761D01*
X179093904Y-53932142D01*
X179093904Y-53598809D01*
X179284380Y-53598809D01*
X178665333Y-54027380D02*
X178665333Y-53027380D01*
X178093904Y-54027380D01*
X178093904Y-53027380D01*
X177617714Y-54027380D02*
X177617714Y-53027380D01*
X177379619Y-53027380D01*
X177236761Y-53075000D01*
X177141523Y-53170238D01*
X177093904Y-53265476D01*
X177046285Y-53455952D01*
X177046285Y-53598809D01*
X177093904Y-53789285D01*
X177141523Y-53884523D01*
X177236761Y-53979761D01*
X177379619Y-54027380D01*
X177617714Y-54027380D01*
D13*
X186393333Y-52702857D02*
X186393333Y-55369523D01*
X187226666Y-51179047D02*
X188060000Y-54036190D01*
X185893333Y-54036190D01*
X157850000Y-51369523D02*
X157850000Y-52321904D01*
X158683333Y-51940952D02*
X157850000Y-52321904D01*
X157016666Y-51940952D01*
X158350000Y-53083809D02*
X157850000Y-52321904D01*
X157350000Y-53083809D01*
D14*
X149931523Y-53075000D02*
X150026761Y-53027380D01*
X150169619Y-53027380D01*
X150312476Y-53075000D01*
X150407714Y-53170238D01*
X150455333Y-53265476D01*
X150502952Y-53455952D01*
X150502952Y-53598809D01*
X150455333Y-53789285D01*
X150407714Y-53884523D01*
X150312476Y-53979761D01*
X150169619Y-54027380D01*
X150074380Y-54027380D01*
X149931523Y-53979761D01*
X149883904Y-53932142D01*
X149883904Y-53598809D01*
X150074380Y-53598809D01*
X149455333Y-54027380D02*
X149455333Y-53027380D01*
X148883904Y-54027380D01*
X148883904Y-53027380D01*
X148407714Y-54027380D02*
X148407714Y-53027380D01*
X148169619Y-53027380D01*
X148026761Y-53075000D01*
X147931523Y-53170238D01*
X147883904Y-53265476D01*
X147836285Y-53455952D01*
X147836285Y-53598809D01*
X147883904Y-53789285D01*
X147931523Y-53884523D01*
X148026761Y-53979761D01*
X148169619Y-54027380D01*
X148407714Y-54027380D01*
D13*
X159016666Y-51369523D02*
X156850000Y-51369523D01*
X158016666Y-52893333D01*
X157516666Y-52893333D01*
X157183333Y-53083809D01*
X157016666Y-53274285D01*
X156850000Y-53655238D01*
X156850000Y-54607619D01*
X157016666Y-54988571D01*
X157183333Y-55179047D01*
X157516666Y-55369523D01*
X158516666Y-55369523D01*
X158850000Y-55179047D01*
X159016666Y-54988571D01*
X128640000Y-51369523D02*
X128640000Y-52321904D01*
X129473333Y-51940952D02*
X128640000Y-52321904D01*
X127806666Y-51940952D01*
X129140000Y-53083809D02*
X128640000Y-52321904D01*
X128140000Y-53083809D01*
D14*
X120721523Y-53075000D02*
X120816761Y-53027380D01*
X120959619Y-53027380D01*
X121102476Y-53075000D01*
X121197714Y-53170238D01*
X121245333Y-53265476D01*
X121292952Y-53455952D01*
X121292952Y-53598809D01*
X121245333Y-53789285D01*
X121197714Y-53884523D01*
X121102476Y-53979761D01*
X120959619Y-54027380D01*
X120864380Y-54027380D01*
X120721523Y-53979761D01*
X120673904Y-53932142D01*
X120673904Y-53598809D01*
X120864380Y-53598809D01*
X120245333Y-54027380D02*
X120245333Y-53027380D01*
X119673904Y-54027380D01*
X119673904Y-53027380D01*
X119197714Y-54027380D02*
X119197714Y-53027380D01*
X118959619Y-53027380D01*
X118816761Y-53075000D01*
X118721523Y-53170238D01*
X118673904Y-53265476D01*
X118626285Y-53455952D01*
X118626285Y-53598809D01*
X118673904Y-53789285D01*
X118721523Y-53884523D01*
X118816761Y-53979761D01*
X118959619Y-54027380D01*
X119197714Y-54027380D01*
D13*
X129640000Y-51750476D02*
X129473333Y-51560000D01*
X129140000Y-51369523D01*
X128306666Y-51369523D01*
X127973333Y-51560000D01*
X127806666Y-51750476D01*
X127640000Y-52131428D01*
X127640000Y-52512380D01*
X127806666Y-53083809D01*
X129806666Y-55369523D01*
X127640000Y-55369523D01*
X99430000Y-51369523D02*
X99430000Y-52321904D01*
X100263333Y-51940952D02*
X99430000Y-52321904D01*
X98596666Y-51940952D01*
X99930000Y-53083809D02*
X99430000Y-52321904D01*
X98930000Y-53083809D01*
D14*
X91511523Y-53075000D02*
X91606761Y-53027380D01*
X91749619Y-53027380D01*
X91892476Y-53075000D01*
X91987714Y-53170238D01*
X92035333Y-53265476D01*
X92082952Y-53455952D01*
X92082952Y-53598809D01*
X92035333Y-53789285D01*
X91987714Y-53884523D01*
X91892476Y-53979761D01*
X91749619Y-54027380D01*
X91654380Y-54027380D01*
X91511523Y-53979761D01*
X91463904Y-53932142D01*
X91463904Y-53598809D01*
X91654380Y-53598809D01*
X91035333Y-54027380D02*
X91035333Y-53027380D01*
X90463904Y-54027380D01*
X90463904Y-53027380D01*
X89987714Y-54027380D02*
X89987714Y-53027380D01*
X89749619Y-53027380D01*
X89606761Y-53075000D01*
X89511523Y-53170238D01*
X89463904Y-53265476D01*
X89416285Y-53455952D01*
X89416285Y-53598809D01*
X89463904Y-53789285D01*
X89511523Y-53884523D01*
X89606761Y-53979761D01*
X89749619Y-54027380D01*
X89987714Y-54027380D01*
D13*
X98430000Y-55369523D02*
X100430000Y-55369523D01*
X99430000Y-55369523D02*
X99430000Y-51369523D01*
X99763333Y-51940952D01*
X100096666Y-52321904D01*
X100430000Y-52512380D01*
M02*
