M48
; DRILL file {KiCad (5.1.5)-3} date 12/7/2020 3:57:27 PM
; FORMAT={-:-/ absolute / inch / decimal}
; #@! TF.CreationDate,2020-12-07T15:57:27+01:00
; #@! TF.GenerationSoftware,Kicad,Pcbnew,(5.1.5)-3
; #@! TF.FileFunction,Plated,1,4,PTH
FMAT,2
INCH
T1C0.0118
T2C0.0157
T3C0.0197
T4C0.0350
T5C0.0354
T6C0.0362
T7C0.0394
T8C0.0906
T9C0.1260
%
G90
G05
T1
X3.1997Y-4.3094
X3.237Y-4.2431
X3.2377Y-4.3086
X3.2547Y-3.8738
X3.2686Y-4.2402
X3.2687Y-4.3079
X3.4119Y-4.3506
X3.416Y-4.1741
X3.4546Y-4.1998
X3.4618Y-4.0324
X3.4626Y-4.0018
X3.4868Y-4.0564
X3.4879Y-3.1208
X3.4959Y-3.448
X3.5014Y-3.286
X3.509Y-4.0854
X3.5314Y-3.6146
X3.6074Y-3.5148
X3.609Y-3.547
X3.6091Y-3.4158
X3.6224Y-3.489
X3.629Y-3.4588
X3.6333Y-4.3248
X3.6337Y-3.3994
X3.6514Y-3.3758
X3.6585Y-4.3506
X3.6749Y-2.4922
X3.6775Y-2.5255
X3.679Y-2.463
X3.68Y-2.398
X3.68Y-2.4285
X3.6828Y-2.3392
X3.6833Y-2.3097
X3.6839Y-2.3687
X3.8537Y-4.6108
X3.8541Y-4.7098
X3.9116Y-4.7613
X4.0315Y-4.575
X4.2228Y-4.1364
X4.2324Y-4.0563
X4.2436Y-4.1156
X4.2598Y-4.4019
X4.2598Y-4.4413
X4.3072Y-4.1069
X4.4222Y-3.7011
X4.4623Y-3.5552
X4.4623Y-3.5987
X4.4882Y-3.6814
X4.4928Y-2.3214
X4.5077Y-3.5074
X4.5077Y-3.5369
X4.5077Y-3.5783
X4.5077Y-3.6196
X4.525Y-2.3208
X4.5498Y-3.6816
X4.5668Y-4.0567
X4.584Y-3.6809
X4.5997Y-4.0283
X4.6059Y-4.1722
X4.6078Y-4.0909
X4.6084Y-3.7004
X4.6265Y-4.147
X4.632Y-4.2722
X4.6362Y-3.6904
X4.6377Y-4.2318
X4.6408Y-4.1153
X4.6734Y-3.6936
X4.6859Y-4.0271
X4.6878Y-4.6461
X4.6987Y-4.5583
X4.7136Y-3.8402
X4.7176Y-3.6904
X4.781Y-3.6824
X4.7818Y-3.6022
X4.818Y-3.6816
X4.818Y-3.8416
X4.8592Y-3.68
X4.8654Y-4.2658
X4.8932Y-4.2936
X4.906Y-3.263
X4.9244Y-3.2861
X4.9513Y-3.2999
X4.9814Y-3.3205
X5.1152Y-3.8668
X5.1306Y-3.355
X5.134Y-3.8921
X5.182Y-3.3757
X5.2178Y-3.8728
X5.2377Y-3.851
X5.2576Y-3.6722
X5.2812Y-3.701
X5.3276Y-3.6946
X5.352Y-3.663
X5.3993Y-3.6528
X5.4224Y-3.6712
X5.4696Y-3.6694
X5.4948Y-3.6492
X5.5416Y-3.6914
X5.5702Y-3.669
X5.5853Y-4.8816
X5.5898Y-5.0734
X5.6124Y-3.6856
X5.6142Y-5.151
X5.6176Y-3.075
X5.636Y-3.6562
X5.6449Y-3.0883
X5.686Y-5.1516
X5.7223Y-4.8707
X5.76Y-4.8786
X5.777Y-3.21
X5.7902Y-3.2364
X5.8063Y-3.2612
X5.8191Y-4.6544
X5.8236Y-3.2851
X5.8828Y-5.0894
X6.13Y-3.6215
X6.1386Y-3.5674
X6.2135Y-4.7695
X6.3171Y-3.6214
X6.3467Y-3.6214
X6.388Y-3.6214
X6.4175Y-3.6214
X6.4534Y-3.9342
X6.4589Y-3.6214
X6.4742Y-3.955
X6.4785Y-4.227
X6.4884Y-3.6214
X6.591Y-3.9473
X6.6231Y-3.891
X6.6328Y-4.5238
X6.6465Y-3.8606
X6.6848Y-3.8556
X7.2242Y-3.508
X7.4278Y-2.8982
X7.4956Y-2.8295
X7.6275Y-4.248
X7.6337Y-2.864
X7.6346Y-2.9005
X7.641Y-2.9606
X7.641Y-2.9902
X7.6472Y-4.2222
X7.6964Y-3.1796
X7.6964Y-3.2092
X7.7202Y-3.301
X7.7202Y-3.3306
X7.75Y-4.295
T2
X3.1Y-3.0406
X3.256Y-4.0326
X3.5Y-2.7275
X3.5122Y-4.545
X3.7574Y-3.74
X3.93Y-1.3505
X4.0802Y-4.7144
X4.0818Y-4.82
X4.118Y-3.9814
X4.1232Y-2.486
X4.2726Y-4.6598
X4.273Y-4.6092
X4.2856Y-3.8062
X4.3078Y-4.3696
X4.3271Y-4.0767
X4.4127Y-4.4781
X4.4647Y-4.0514
X4.5872Y-4.3833
X4.721Y-4.6096
X4.7254Y-4.2592
X4.739Y-4.0565
X4.7975Y-2.055
X4.8828Y-4.0204
X4.9142Y-4.7038
X4.9515Y-1.799
X4.9622Y-4.7758
X4.9834Y-3.7254
X5.096Y-1.346
X5.4938Y-4.682
X5.4963Y-4.8793
X5.499Y-4.7984
X5.7028Y-4.6138
X5.7766Y-4.5006
X5.8253Y-5.0448
X5.8386Y-4.3718
X5.85Y-4.6136
X5.9192Y-5.0482
X5.965Y-2.059
X6.023Y-1.8005
X6.1232Y-4.4702
X6.3185Y-1.325
X6.4476Y-5.0428
X6.4842Y-4.7036
X6.5394Y-4.5339
X6.611Y-4.818
X6.629Y-4.7092
X6.737Y-3.3672
X6.7834Y-3.5552
X6.801Y-5.045
X6.81Y-3.8438
X6.832Y-4.2165
X6.833Y-4.7315
X6.8368Y-3.3704
X6.875Y-3.268
X6.8755Y-3.3405
X6.8768Y-3.5562
X6.878Y-3.8565
X6.916Y-3.3688
X6.9289Y-3.8535
X6.9585Y-4.373
X6.9707Y-3.3699
X7.002Y-4.273
X7.0375Y-4.31
X7.0854Y-3.8716
X7.0855Y-4.378
X7.0864Y-4.0616
X7.0965Y-2.0575
X7.1055Y-4.978
X7.1145Y-4.8355
X7.135Y-4.635
X7.1568Y-4.4336
X7.242Y-1.801
X7.2664Y-4.5888
X7.3145Y-4.298
X7.315Y-4.9045
X7.345Y-2.655
X7.3505Y-4.732
X7.351Y-4.8095
X7.4525Y-5.0025
X7.462Y-1.346
X7.5686Y-2.694
X7.6225Y-5.0025
T3
X7.9555Y-1.2
X7.9832Y-1.1332
X7.9832Y-1.2668
X8.05Y-1.1055
X8.05Y-1.2945
X8.1168Y-1.1332
X8.1168Y-1.2668
X8.1445Y-1.2
X7.9555Y-5.15
X7.9832Y-5.0832
X7.9832Y-5.2168
X8.05Y-5.0555
X8.05Y-5.2445
X8.1168Y-5.0832
X8.1168Y-5.2168
X8.1445Y-5.15
X3.1055Y-5.15
X3.1332Y-5.0832
X3.1332Y-5.2168
X3.2Y-5.0555
X3.2Y-5.2445
X3.2668Y-5.0832
X3.2668Y-5.2168
X3.2945Y-5.15
X3.1055Y-1.2
X3.1332Y-1.1332
X3.1332Y-1.2668
X3.2Y-1.1055
X3.2Y-1.2945
X3.2668Y-1.1332
X3.2668Y-1.2668
X3.2945Y-1.2
T4
X3.45Y-1.4
X3.45Y-1.5
X3.45Y-1.6
X3.45Y-1.7
X3.45Y-1.8
X3.45Y-1.9
X3.45Y-2.0
X3.45Y-2.1
X4.35Y-1.4
X4.35Y-1.5
X4.35Y-1.6
X4.35Y-1.7
X4.35Y-1.8
X4.35Y-1.9
X4.35Y-2.0
X4.35Y-2.1
X4.6Y-1.4
X4.6Y-1.5
X4.6Y-1.6
X4.6Y-1.7
X4.6Y-1.8
X4.6Y-1.9
X4.6Y-2.0
X4.6Y-2.1
X5.5Y-1.4
X5.5Y-1.5
X5.5Y-1.6
X5.5Y-1.7
X5.5Y-1.8
X5.5Y-1.9
X5.5Y-2.0
X5.5Y-2.1
X5.75Y-1.4
X5.75Y-1.5
X5.75Y-1.6
X5.75Y-1.7
X5.75Y-1.8
X5.75Y-1.9
X5.75Y-2.0
X5.75Y-2.1
X6.65Y-1.4
X6.65Y-1.5
X6.65Y-1.6
X6.65Y-1.7
X6.65Y-1.8
X6.65Y-1.9
X6.65Y-2.0
X6.65Y-2.1
X6.9Y-1.4
X6.9Y-1.5
X6.9Y-1.6
X6.9Y-1.7
X6.9Y-1.8
X6.9Y-1.9
X6.9Y-2.0
X6.9Y-2.1
X7.8Y-1.4
X7.8Y-1.5
X7.8Y-1.6
X7.8Y-1.7
X7.8Y-1.8
X7.8Y-1.9
X7.8Y-2.0
X7.8Y-2.1
T6
X4.95Y-4.95
X5.0484Y-4.95
X5.1272Y-4.95
X5.2256Y-4.95
X4.25Y-4.95
X4.3484Y-4.95
X4.4272Y-4.95
X4.5256Y-4.95
X3.55Y-4.95
X3.6484Y-4.95
X3.7272Y-4.95
X3.8256Y-4.95
T7
X7.7302Y-3.843
X7.7302Y-3.943
X7.8302Y-3.843
X7.8302Y-3.943
X7.9302Y-3.843
X7.9302Y-3.943
X8.0302Y-3.843
X8.0302Y-3.943
X8.05Y-1.7
X8.05Y-1.8
X8.05Y-1.9
X7.85Y-4.8
X7.85Y-4.9
X3.3638Y-2.5956
X3.3638Y-2.6956
X3.3638Y-2.7956
X3.2Y-2.5946
X3.2Y-2.6946
X3.2Y-2.7946
X3.2Y-2.8946
X3.95Y-2.6
X3.95Y-2.7
X3.95Y-2.8
X3.95Y-2.9
X3.95Y-3.0
X3.95Y-3.1
X3.95Y-3.2
X3.95Y-3.3
X4.05Y-2.6
X4.05Y-2.7
X4.05Y-2.8
X4.05Y-2.9
X4.05Y-3.0
X4.05Y-3.1
X4.05Y-3.2
X4.05Y-3.3
T8
X4.8291Y-5.0567
X5.3465Y-5.0567
X4.1291Y-5.0567
X4.6465Y-5.0567
X3.4291Y-5.0567
X3.9465Y-5.0567
T9
X8.05Y-5.15
X3.2Y-5.15
X3.2Y-1.2
X8.05Y-1.2
T5
G00X5.6546Y-4.9546
M15
G01X5.6546Y-5.0254
M16
G05
G00X5.6546Y-5.2089
M15
G01X5.6546Y-5.2404
M16
G05
G00X6.2254Y-4.9546
M15
G01X6.2254Y-5.0254
M16
G05
G00X6.2254Y-5.2089
M15
G01X6.2254Y-5.2404
M16
G05
T0
M30
